<?xml version="1.0" encoding="utf-8"?>
<!-- Generator: Adobe Illustrator 27.9.0, SVG Export Plug-In . SVG Version: 6.00 Build 0)  -->
<svg version="1.1" id="Layer_1" xmlns="http://www.w3.org/2000/svg" xmlns:xlink="http://www.w3.org/1999/xlink" x="0px" y="0px"
	 viewBox="0 0 600 600" style="enable-background:new 0 0 600 600;" xml:space="preserve">
<style type="text/css">
	.st0{fill:#404040;}
</style>
<path class="st0" d="M298,105c18.8,0.1,34,14.6,35.8,33H370c5,0,9,4,9,9v12h33c21.5,0,39,17.5,39,39v252c0,21.5-17.5,39-39,39H184
	c-21.5,0-39-17.5-39-39V198c0-21.5,17.5-39,39-39h33v-12c0-5,4-9,9-9h36.2C263.7,119.2,279.5,105.5,298,105L298,105z M313,237h-30
	c-5,0-9,4-9,9v171h-18v-96h-39c-5,0-9,4-9,9v87h-12c-5,0-9,4-9,9c0,5,4,9,9,9h204c5,0,9-4,9-9c0-5-4-9-9-9h-12V288c0-5-4-9-9-9h-39
	v138h-18V246C322,241,318,237,313,237L313,237z M298,123c-9.9,0-18,8.1-18,18.2c0,0.9,0.1,2,0.5,4c1.1,5.6-3.1,10.8-8.8,10.8H235v12
	c0,8.4,5.5,15,12,15h102c6.5,0,12-6.6,12-15v-12h-36.7c-5.9,0-10.2-5.6-8.7-11.3c0.3-1.2,0.3-2.5,0.4-3.7
	C315.7,130.6,308.2,123.5,298,123L298,123z M298,123"/>
</svg>
