<?xml version="1.0" encoding="utf-8"?>
<!-- Generator: Adobe Illustrator 27.9.0, SVG Export Plug-In . SVG Version: 6.00 Build 0)  -->
<svg version="1.1" id="Layer_1" xmlns="http://www.w3.org/2000/svg" xmlns:xlink="http://www.w3.org/1999/xlink" x="0px" y="0px"
	 viewBox="0 0 600 600" style="enable-background:new 0 0 600 600;" xml:space="preserve">
<style type="text/css">
	.st0{fill:#404040;}
</style>
<path class="st0" d="M450,492c23.2,0,42-18.8,42-42v-15c0-5-4-9-9-9h-66v-59.5c4.4-1.6,2.4-0.8,6-2.2c9.2-3.6,18.4-7.9,27.1-12.9
	c11.4-6.6,20.9-14.1,28.1-22.6c8.9-10.5,13.9-22.1,13.9-34.8v-84c0-3.9-2.5-7.4-6.3-8.6c-65.1-20.8-66.9-21.4-68.7-22V117
	c0-5-4-9-9-9H117c-5,0-9,4-9,9v333c0,23.2,18.8,42,42,42H450z M285,189h-81c-5,0-9-4-9-9s4-9,9-9h81c5,0,9,4,9,9S290,189,285,189
	L285,189z M408,350.6c-2.8-0.9-5.5-1.9-8.5-3c-8.4-3.3-16.7-7.2-24.5-11.7c-21-12.3-33-26.5-33-41.8v-77.4l66-21.1
	c62.4,20,64.2,20.5,66,21.1V294c0,15.3-12.1,29.5-33,41.8c-7.8,4.5-16.1,8.4-24.5,11.7L408,350.6z M276,237H174c-5,0-9-4-9-9
	s4-9,9-9h102c5,0,9,4,9,9S281,237,276,237L276,237z M276,285H174c-5,0-9-4-9-9c0-5,4-9,9-9h102c5,0,9,4,9,9C285,281,281,285,276,285
	L276,285z M276,333H174c-5,0-9-4-9-9c0-5,4-9,9-9h102c5,0,9,4,9,9C285,329,281,333,276,333L276,333z M303,381H174c-5,0-9-4-9-9
	c0-5,4-9,9-9h129c5,0,9,4,9,9C312,377,308,381,303,381L303,381z M450,474H184.4c5.1-7,7.4-15.4,7.6-24v-6h282v6
	C474,463.3,463.3,474,450,474L450,474z M450,474"/>
<path class="st0" d="M393,300c2.1-0.2,3.9-1.2,5.5-2.6l36-36c3.5-3.5,3.5-9.2,0-12.7c-3.5-3.5-9.2-3.5-12.7,0l-29.6,29.6l-11.6-11.6
	c-3.5-3.5-9.2-3.5-12.7,0c-3.5,3.5-3.5,9.2,0,12.7l18,18C388.1,299.6,389.9,300,393,300L393,300z M393,300"/>
</svg>
